<?xml version="1.0" encoding="utf-8"?>
<!DOCTYPE svg PUBLIC "-//W3C//DTD SVG 20010904//EN" "http://www.w3.org/TR/2001/REC-SVG-20010904/DTD/svg10.dtd">
<svg version="1.0" xmlns="http://www.w3.org/2000/svg" width="1309px" height="1309px" viewBox="0 0 1309 1309" preserveAspectRatio="xMidYMid meet">
 <g fill="#c88b3a">
  <path d="M637.5 1227.3 c-51.3 -6.4 -91.6 -41.9 -104.7 -92.2 -3.1 -12 -3.4 -33.2 -0.9 -67.1 5.2 -69.3 8.9 -121.4 11.1 -153.5 0.5 -8.2 1.7 -24.1 2.6 -35.2 1.4 -18.4 1.4 -20.7 0 -25.6 -2 -6.9 -8.3 -14.2 -15.1 -17.3 l-5 -2.4 -150.7 0 -150.8 0 0 -95.5 0 -95.5 23 0 c19.8 0 23 -0.2 23 -1.5 0 -1.3 21.9 -1.5 191.5 -1.5 l191.5 0 0 294 0 294 -6.2 -0.1 c-3.5 -0.1 -7.6 -0.4 -9.3 -0.6z"/>
 </g>
 <g fill="#e09d44">
  <path d="M650 935.5 c0 -259.3 -0.2 -292.5 -1.5 -292.5 -0.8 0 -1.5 -0.7 -1.5 -1.5 0 -1.3 21.7 -1.5 189 -1.5 167.3 0 189 0.2 189 1.5 0 1.3 3.6 1.5 26.5 1.5 l26.5 0 0 95.5 0 95.5 -149.8 0 c-170.1 0 -155.6 -0.7 -164.7 8.4 -3.8 3.8 -5.6 6.6 -6.9 10.9 -1.7 5.4 -1.7 6.7 -0.2 26 0.9 11.1 2 26.5 2.6 34.2 1.9 28.2 7.8 110.3 11 153.2 2.6 34.6 2.6 51.5 -0.1 64.6 -9.9 48.7 -49.5 86.8 -98.8 95.1 -5.2 0.9 -12.1 1.6 -15.3 1.6 l-5.8 0 0 -292.5z"/>
 </g>
 <g fill="#d765af">
  <path d="M317.4 489.1 c-9.7 -2.4 -21 -11.5 -25.4 -20.6 -2.5 -5 -2.5 -5.2 -3.1 -43 -0.5 -38.7 -0.7 -40.9 -5.1 -56 -6.2 -21.3 -23 -46.1 -40.2 -59.4 -4.9 -3.8 -5.5 -4.7 -6.1 -8.9 -0.9 -7 -22.3 -218.7 -22 -218.9 0.2 -0.4 437.8 -0.4 437.9 -0.1 0.1 0.2 0 92.1 -0.2 204.2 l-0.2 203.9 -7.8 -0.6 c-14 -0.9 -25.5 -8.8 -31.5 -21.5 l-3.2 -6.7 -0.6 -112 c-0.5 -96.1 -0.8 -112.8 -2.1 -118 -3 -12 -3.9 -14.5 -4.8 -14.5 -0.6 0 -1 -1.3 -1 -3 0 -1.6 -0.4 -3 -1 -3 -0.5 0 -1 -1 -1 -2.2 0 -2.6 -6.7 -15 -12.9 -23.8 -4.8 -6.9 -22.2 -25 -24 -25 -0.5 0 -2.1 -1.1 -3.5 -2.5 -1.4 -1.4 -3.2 -2.5 -4.1 -2.5 -0.8 0 -1.5 -0.4 -1.5 -1 0 -1.2 -8.2 -6 -10.3 -6 -1 0 -1.7 -0.4 -1.7 -0.9 0 -2.1 -22.7 -10.1 -28.5 -10.1 -1.7 0 -3.7 -0.6 -4.4 -1.3 -1.7 -1.7 -35.5 -1.7 -37.3 0.1 -0.6 0.6 -2.9 1.2 -5 1.2 -2.1 0 -3.8 0.5 -3.8 1 0 0.6 -1.3 1 -2.8 1 -3.6 0 -12.2 2.9 -12.2 4.1 0 0.5 -1 0.9 -2.2 0.9 -2.9 0 -14.9 6.5 -23.6 12.7 -9.3 6.7 -23.4 21.3 -29.7 30.8 -6.8 10.1 -13.5 24.1 -14.2 29.4 -0.3 2.3 -0.9 4.1 -1.3 4.1 -1.1 0 -3.8 11.9 -5 22 -0.6 5.2 -1 48.2 -1 110.9 0 114 0.3 108.5 -6.8 119.1 -7.7 11.4 -19.4 17.1 -35.1 16.9 -4.7 -0.1 -10 -0.4 -11.7 -0.8z"/>
 </g>
 <g fill="#f66ec3">
  <path d="M647 488.5 c0 -0.8 0.7 -1.5 1.5 -1.5 1.3 0 1.5 -23.2 1.5 -202.5 l0 -202.5 222.4 0 222.3 0 -0.4 2.3 c-0.2 1.2 -6.6 54.2 -14.3 117.7 -7.7 63.5 -14.5 118.3 -15.1 121.7 -1 5.9 -1.4 6.5 -6.6 10.4 -17 13.2 -32.5 35.9 -39.3 58 -4.7 15.1 -5.2 18.8 -5.9 45 l-0.6 24.5 -3.3 6.6 c-7.9 15.5 -21.3 22.6 -41 21.6 -8.4 -0.4 -10.6 -0.9 -16.5 -3.8 -8.5 -4.2 -15.7 -11.7 -18.8 -19.8 -2.2 -5.6 -2.3 -6.9 -2.9 -62.7 l-0.7 -57 -2.6 -9.6 c-3.2 -11.9 -5.6 -18.4 -10.4 -27.9 -18.2 -35.9 -52 -60.5 -91.8 -66.6 -11.5 -1.7 -17.7 -1.7 -29.6 0.1 -25.5 3.8 -48.8 15.5 -67.5 34 -14 13.8 -23.9 29.8 -30.4 49.5 -5.1 15.2 -5.3 17.8 -5.9 78.5 l-0.6 57 -3.1 6.5 c-6.8 14 -19.3 22 -34.6 22 -4.5 0 -5.8 -0.3 -5.8 -1.5z"/>
 </g>
 <g fill="#f1ddb0">
  <path d="M270 640.3 c-0.1 -1.6 -7.4 -78.7 -16.3 -171.4 l-16.2 -168.6 5 3.6 c8.2 5.7 22.7 21 28.9 30.4 9.3 14.2 14.5 26.7 18.7 44.7 0.9 3.7 1.5 18.1 1.8 43.5 0.6 37.8 0.6 38 3.1 43 3.2 6.7 11.2 14.4 18.4 17.8 16.5 8 37.3 2.2 47.8 -13.3 7.1 -10.6 6.8 -5.1 6.8 -119.1 0 -62.7 0.4 -105.7 1 -110.9 1.3 -10.7 3.9 -22 5.2 -22 0.5 0 0.6 -0.5 0.3 -1 -0.8 -1.2 2.3 -9.6 6.6 -18.3 11.5 -23 32.6 -44.1 55.7 -55.6 3.4 -1.8 6.7 -2.9 7.2 -2.6 0.6 0.4 1 0.2 1 -0.4 0 -1.2 12.6 -5.5 13.9 -4.7 0.5 0.4 1.1 0.1 1.3 -0.5 0.2 -0.7 1.9 -1.3 3.8 -1.4 1.9 -0.2 4.4 -0.7 5.5 -1.1 2.7 -1.2 39.5 -1.1 42 0 1.1 0.5 2.6 0.8 3.2 0.7 3.6 -0.6 30.3 9.2 30.3 11.1 0 0.5 0.4 0.7 0.8 0.4 1.1 -0.7 11.2 5.2 11.2 6.5 0 0.6 0.4 0.8 0.9 0.5 0.5 -0.3 2.3 0.7 4 2.3 1.6 1.5 3.2 2.6 3.5 2.4 0.9 -0.9 20.2 19.2 24.7 25.7 5.4 7.6 12.6 20.6 13.1 23.5 0.2 1.1 0.7 2.3 1.1 2.6 0.5 0.4 1 1.8 1 3.3 0.1 1.4 0.5 2.6 0.9 2.6 0.7 0 1.7 3 4.6 14.5 1.3 5.2 1.6 21.9 2.1 118 l0.6 112 3.2 6.7 c5.7 12 17.2 20.3 29.9 21.5 l6.4 0.6 0 77.8 0 77.9 -191.5 0 -191.5 0 0 -2.7z"/>
 </g>
 <g fill="#f9e7c2">
  <path d="M650 565 l0 -78 2.8 0 c4.2 0 13 -2.8 17.4 -5.6 6 -3.8 10.7 -9.3 14.2 -16.4 l3.1 -6.5 0.6 -57 c0.6 -60.7 0.8 -63.3 5.9 -78.5 12.8 -38.4 41.3 -67 78.9 -79.1 57.1 -18.3 119.1 8 146.4 62.1 4.8 9.5 7.2 16 10.4 27.9 l2.6 9.6 0.7 57 c0.6 55.8 0.7 57.1 2.9 62.7 4.9 12.6 18.3 22.3 32.1 23.5 16.2 1.4 30.7 -6.8 38.2 -21.5 l3.3 -6.6 0.6 -24.5 c0.7 -26.2 1.2 -29.9 5.9 -45 7.1 -22.8 22.7 -45.5 40.8 -59.1 3.7 -2.7 6.9 -5 7.2 -5 0.5 0 -19.1 158.1 -37.1 300.3 l-2.2 17.7 -187.4 0 -187.3 0 0 -78z"/>
 </g>
</svg>